# xmcd
#
# Track frame offsets: 
#        150
#        14980
#        29910
#        43538
#        55966
#        71003
#        87479
#        104197
#        122158
#        134945
#        146921
#        160933
#        173729
#        188752
#        206485
#        226040
#        244599
#        265128
#        275206
#        295866
#
# Disc length: 4132 seconds
#
# Revision: 0
# Processed by: cddbd v1.5.1PL0 Copyright (c) Steve Scherf et al.
# Submitted via: ExactAudioCopy v0.95b2
#
DISCID=46102214
DTITLE=Various Artist - Gala Piosenki Biesiadnej 9
DYEAR=1900
DGENRE=Country
TTITLE0=Izabela i Ryszard Szymañscy/Balanga w Australii
TTITLE1=Izabela i Ryszard Szymañscy/Od dawna ju¿ na Ciebie czekam
TTITLE2=Izabela i Ryszard Szymañscy/Piosenka dla Ciebie
TTITLE3=Polonia Band/Musi byæ
TTITLE4=Polonia Band/Gienka jaja
TTITLE5=Polonia Band/Ja do Polski nie pojadê
TTITLE6=Polonia Band/Moja baba w kraju
TTITLE7=Polonia Band/Spotkamy siê w Chicago
TTITLE8=Polonia Band/Kwiat paproci
TTITLE9=Polonia Band/List do matki
TTITLE10=Polonia Band/Hej, Mazury
TTITLE11=Polonia Band/Batory
TTITLE12=Polonia Band/Gdzie ty jestes, chatko mala
TTITLE13=Polonia Band/Walczyk o Chicago
TTITLE14=Polonia Band/Za wod¹
TTITLE15=Izabela i Ryszard Szymañscy/Co wieczora
TTITLE16=Izabela i Ryszard Szymañscy/Góralu
TTITLE17=Izabela i Ryszard Szymañscy/Mardzianda
TTITLE18=Polonia Band/Polskie dziewczyny
TTITLE19=Polonia Band/Kwiaty polskie
EXTD=
EXTT0=TITLE="Balanga w Australi"\nARTIST="Izabela i Ryszard Szymañscy"
EXTT1=
EXTT2=
EXTT3=
EXTT4=
EXTT5=
EXTT6=
EXTT7=
EXTT8=
EXTT9=
EXTT10=
EXTT11=
EXTT12=
EXTT13=
EXTT14=
EXTT15=
EXTT16=
EXTT17=
EXTT18=
EXTT19=
PLAYORDER=
